<svg xmlns="http://www.w3.org/2000/svg" xmlns:xlink="http://www.w3.org/1999/xlink" width="136.454" height="1462" viewBox="0 0 136.454 1462"><svg viewBox="0 0 125.397 125.397" width="125.397" height="125.397" id="bull" y="0"><path d="M96.793 85.864c0 21.7 0 39.536-39.294 39.292h-.72c-39.295 2.696-39.295-17.59-39.295-39.292v-.64c0-21.7 17.593-39.293 39.295-39.293h.72c21.7 0 39.293 17.593 39.293 39.293v.64z" fill-rule="evenodd" clip-rule="evenodd" fill="#775236"/><path d="M113.02 78.763c-1.117 1.425-4.338 5.587-2.873 11.96.646 2.81 1.38 4.487 1.945 5.75.59 1.26 2.187 3.707 3.563 4.895 1.122-1.427 1.49-1.618 2.66-3.507.723-1.18 1.376-3.023 1.248-4.33-.128-1.304-.297-2.706-1.275-4.608-.593-1.264-5.302-6.75-5.27-10.16z" fill="#5e3b28"/><path d="M117.1 100.494c.184-.73.31-1.502.38-2.318a2.93 2.93 0 1 0-5.84-.485c-.8 9.55-17.275 9.254-17.443 9.25a2.927 2.927 0 0 0-2.998 2.858 2.93 2.93 0 0 0 2.857 3c.856.02 19.915.32 23.044-12.304z" fill="#775236"/><path d="M64.86 16.403S77.373 10.2 80.155 0c0 0 5.062 15.065-2.028 24.875 0 0-4.897-7.037-13.27-8.472zm-16.283 0S36.062 10.2 33.28 0c0 0-5.062 15.065 2.028 24.875 0 0 4.897-7.037 13.27-8.472z" fill="#333"/><defs><path id="aaa" d="M23.332 49.42c0-20.292 17.052-35.008 33.576-35.008 15.86 0 32.14 13.787 34.29 33.96 2.143 20.1-5.532 42.776-34.06 42.776-32.917 0-33.806-21.435-33.806-41.728z"/></defs><use xlink:href="#aaa" overflow="visible" fill-rule="evenodd" clip-rule="evenodd" fill="#856040"/><path d="M63.23 49.596C62.69 30.714 77.797 23.84 78.94 23.128c4.654 3.938 5.546 5.18 8.393 10.114.686 1.186 1.96 6.827 1.978 6.964 0 0 1.212-1.94 1.89 3.847.646 5.51 1.107 10.228 0 16.646-.273.102-27.404 8.612-27.967-11.104z" fill="#775236"/><path d="M85.666 75.094c0 8.866-15.55 16.772-25.302 16.772h-8.53c-9.754 0-23.683-7.906-23.683-16.772 0-8.867 7.91-16.054 17.664-16.054h22.19c9.753 0 17.662 7.187 17.662 16.054z" fill-rule="evenodd" clip-rule="evenodd" fill="#5e3b28"/><path d="M78.938 23.128s21.667-2.51 24.79 9.24c3.126 11.754 4.173 15.698 4.173 15.698s-22.294.147-25.417-11.604a22984.184 22984.184 0 0 0-3.545-13.334z" fill="#856040"/><path d="M84.07 27.546s13.99-1.618 16.006 5.966l2.694 10.133s-14.394.096-16.41-7.49l-2.29-8.61z" fill="#e49788"/><path d="M34.782 23.686s-21.667-2.51-24.792 9.24L5.82 48.624s22.293.147 25.417-11.603l3.545-13.334z" fill="#856040"/><path d="M29.65 28.104s-13.99-1.62-16.005 5.965L10.95 44.202s14.395.095 16.412-7.49l2.288-8.61z" fill="#e49788"/><g fill-rule="evenodd" clip-rule="evenodd"><circle cx="41.142" cy="48.846" r="4.044" fill="#1a1a1a"/><path d="M41.142 48.066a1.527 1.527 0 1 1 3.053 0 1.526 1.526 0 1 1-3.053 0z" fill="#fff"/><circle cx="71.856" cy="48.098" r="4.044" fill="#1a1a1a"/><path d="M71.856 47.316a1.527 1.527 0 1 1 3.053 0 1.526 1.526 0 1 1-3.054 0z" fill="#fff"/></g><g fill-rule="evenodd" clip-rule="evenodd" fill="#1a1a1a"><circle cx="49.217" cy="66.426" r="2.41"/><circle cx="64.599" cy="66.426" r="2.41"/></g><path d="M56.908 74.867c-4.655 0-8.44-3.787-8.44-8.44a.75.75 0 0 1 1.5 0 6.95 6.95 0 0 0 6.94 6.94c3.828 0 6.942-3.114 6.942-6.94a.75.75 0 0 1 1.5 0c0 4.654-3.787 8.44-8.442 8.44z" fill="#bdbcbc"/></svg>
<svg viewBox="0 0 115.572 115.572" width="115.572" height="115.572" id="chick" y="126"><g fill-rule="evenodd" clip-rule="evenodd"><g fill="#e7831e"><path d="M70.19 114.09a1.483 1.483 0 0 1-2.964 0v-9.222a1.483 1.483 0 0 1 2.965 0v9.222z"/><path d="M76.49 110.034a1.482 1.482 0 1 1-2.012 2.178l-6.775-6.256a1.482 1.482 0 1 1 2.01-2.178l6.776 6.256z"/><path d="M60.926 110.034a1.482 1.482 0 1 0 2.012 2.178l6.775-6.256a1.482 1.482 0 1 0-2.01-2.178l-6.777 6.256zM48.557 114.09a1.483 1.483 0 0 1-2.965 0v-9.222a1.482 1.482 0 1 1 2.965 0v9.222z"/><path d="M54.856 110.034a1.482 1.482 0 1 1-2.012 2.178l-6.775-6.256a1.482 1.482 0 1 1 2.01-2.178l6.776 6.256z"/><path d="M39.292 110.034a1.482 1.482 0 1 0 2.012 2.178l6.775-6.256a1.482 1.482 0 1 0-2.012-2.178l-6.776 6.256z"/></g><path d="M90.383 73.638c0 17.674-14.327 32-32 32H57.19c-17.673 0-32-14.326-32-32v-36.25c0-17.674 14.327-32 32-32h1.193c17.673 0 32 14.326 32 32v36.25z" fill="#fdbd2c"/><path d="M57.19 5.388S71.705 5.444 74.208 0c0 0 1.926 2.22 0 5.388 0 0 .17 1.165 3.17 0 0 0 1.668.608-4.667 3.388" fill="#fdbd2c"/><path d="M77.643 85.78c0 10.967-8.89 19.857-19.856 19.857-10.967 0-19.856-8.89-19.856-19.856v-6.475c0-10.967 8.89-19.857 19.857-19.857 10.967 0 19.856 8.89 19.856 19.857v6.476z" fill="#f4c778"/><path d="M82.053 61.017l4.084 14.867a6.4 6.4 0 0 0 7.87 4.477 6.4 6.4 0 0 0 4.475-7.867s-.992-4.628-1.66-6.046c-1.675-3.56-4.693-6.683-14.77-5.43zm-48.534 0l-4.084 14.867a6.4 6.4 0 0 1-7.868 4.477 6.4 6.4 0 0 1-4.478-7.867s.994-4.628 1.66-6.046c1.676-3.56 4.694-6.683 14.77-5.43z" fill="#f2b02a"/><circle cx="43.294" cy="40.091" r="3.965" fill="#1a1a1a"/><path d="M43.294 39.327a1.497 1.497 0 1 1 2.994 0 1.496 1.496 0 1 1-2.994 0z" fill="#fff"/><circle cx="72.278" cy="40.091" r="3.964" fill="#1a1a1a"/><path d="M72.28 39.327a1.497 1.497 0 1 1 2.992 0 1.497 1.497 0 0 1-2.993 0z" fill="#fff"/><path fill="#e7831e" d="M57.786 57.386l-3.78-6.55-3.782-6.548H65.35l-3.782 6.55z"/></g></svg>
<svg viewBox="0 0 136.394 136.394" width="136.394" height="136.394" id="crab" y="242"><g fill-rule="evenodd" clip-rule="evenodd"><g fill="#cc4428"><path d="M106.796 78.378c2.753-4.492 8.627-5.903 13.118-3.15a9.54 9.54 0 0 1 3.15 13.12m-22.172 6.764c3.72-3.73 9.76-3.74 13.49-.02 3.73 3.722 3.74 9.76.02 13.492m-26.313-2.474c4.73-2.316 10.444-.36 12.762 4.373 2.317 4.732.358 10.445-4.372 12.763M30.072 78.378c-2.753-4.492-8.626-5.903-13.118-3.15-4.492 2.754-5.9 8.626-3.15 13.12M37.53 95.11c-3.72-3.73-9.762-3.74-13.492-.02-3.73 3.722-3.738 9.76-.018 13.492m26.31-2.474c-4.73-2.316-10.444-.36-12.762 4.373-2.316 4.732-.358 10.445 4.373 12.763"/></g><path d="M115.488 48.326L103.67 65.784c-1.598 2.43-3.71 1.17-5.75-.176-2.042-1.345 2.372-10.31 3.972-12.737l6.2-9.413" fill="#cc4428"/><path d="M132.772 26.126c5.275 5.956 4.724 15.06-1.23 20.335-5.957 5.276-15.06 4.723-20.336-1.23" fill="#e4552c"/><path d="M129.043 15.65c-8.3-4.982-19.068-2.294-24.052 6.008-4.98 8.3-2.29 19.066 6.01 24.05" fill="#e4552c"/><path d="M20.906 48.326l11.816 17.458c1.6 2.43 3.71 1.17 5.75-.176 2.043-1.345-2.372-10.31-3.97-12.737l-6.2-9.413" fill="#cc4428"/><path d="M3.623 26.126c-5.276 5.956-4.725 15.06 1.228 20.335 5.958 5.276 15.06 4.723 20.337-1.23" fill="#e4552c"/><path d="M7.35 15.65c8.303-4.982 19.07-2.294 24.052 6.008 4.983 8.3 2.29 19.066-6.008 24.05" fill="#e4552c"/><g><path d="M100.35 48.483a40.702 40.702 0 0 1 8.688 25.2c0 22.574-18.3 40.875-40.873 40.875S27.29 96.258 27.29 73.684c0-9.91 3.527-18.997 9.394-26.072" fill="#e4552c"/><path d="M57.826 56.442a4.544 4.544 0 0 1-4.543 4.543h-1.328a4.543 4.543 0 0 1-4.54-4.543V38.78a4.54 4.54 0 0 1 4.54-4.54h1.328a4.54 4.54 0 0 1 4.543 4.54v17.662zm32.01 0a4.542 4.542 0 0 1-4.54 4.543h-1.33a4.543 4.543 0 0 1-4.54-4.543V38.78a4.54 4.54 0 0 1 4.54-4.54h1.33a4.54 4.54 0 0 1 4.54 4.54v17.662z" fill="#e4552c"/><circle cx="84.632" cy="39.953" r="3.514" fill="#434849"/><path d="M84.632 39.276a1.327 1.327 0 1 1 2.654 0 1.326 1.326 0 1 1-2.654 0z" fill="#fff"/><circle cx="52.62" cy="39.953" r="3.514" fill="#434849"/><path d="M52.62 39.276a1.328 1.328 0 1 1 2.654 0 1.328 1.328 0 1 1-2.654 0z" fill="#fff"/></g></g></svg>
<svg viewBox="0 0 121.101 121.101" width="121.101" height="121.101" id="fox" y="379"><path d="M63.298 84.602c9.878 8.14 22.86 2.69 30.54-5.806.6-.664 1.28-1.26 2-1.828 3.25-.153 6.784.214 9.68 1.828 0 0-5.192 3.922-7.166 8.226 0 0 5.823 1.186 10.396-1.694 0 0-.574 6.88-5.447 12.828a50.058 50.058 0 0 1-4.947 1.236c-30.03 5.917-38.67-11.15-38.67-11.15l3.615-3.64z" fill="#d45136"/><path d="M98.352 87.022c1.974-4.304 7.167-8.226 7.167-8.226-2.898-1.614-6.43-1.98-9.683-1.828 8.477-6.694 24.205-6.947 24.205-6.947s7.367 20.745-16.74 28.136c4.873-5.948 5.446-12.828 5.446-12.828-4.573 2.88-10.396 1.694-10.396 1.694z" fill="#d8d8d8"/><path d="M81.692 78.792c0 19.177 0 34.936-34.723 34.722h-.636c-34.722 2.38-34.722-15.545-34.722-34.722v-.566c0-19.176 15.545-34.72 34.722-34.72h.635c19.175 0 34.722 15.544 34.722 34.72v.566z" fill-rule="evenodd" clip-rule="evenodd" fill="#e76541"/><g fill-rule="evenodd" clip-rule="evenodd"><path d="M65.785 20.027S74.808 7.374 92.21 7.374c0 0 1.752 16.41-9.368 29.097" fill="#e76541"/><path d="M65.946 23.724s6.994-9.81 20.485-9.81c0 0 1.358 12.722-7.263 22.556" fill="#e49788"/><path d="M26.527 20.027S17.504 7.374.1 7.374c0 0-1.75 16.41 9.37 29.097" fill="#e76541"/><path d="M26.366 23.724s-6.994-9.81-20.485-9.81c0 0-1.356 12.722 7.265 22.556" fill="#e49788"/><path d="M46.65 12.98s-36.62 0-45.56 46.228c0 0 34.205-6.913 45.56 10.813C55.877 54.14 92.21 59.21 92.21 59.21 83.27 12.98 46.65 12.98 46.65 12.98z" fill="#e76541"/><path d="M20.93 23.015s5.35 2.384 13.23 13.88c8.367 12.215 6.462 27.1 6.462 27.1S30.47 56.666 1.09 59.21c0-.002 1.985-22.953 19.84-36.195zm51.628 0s-5.353 2.384-13.23 13.88c-8.368 12.215-6.464 27.1-6.464 27.1s10.153-7.33 39.534-4.786c0-.002-1.986-22.953-19.84-36.195z" fill="#d8d8d8"/><g><circle cx="65.784" cy="42.24" r="3.832" fill="#434849"/><circle cx="67.393" cy="41.501" r="1.447" fill="#fff"/><circle cx="27.701" cy="42.24" r="3.832" fill="#434849"/><circle cx="29.149" cy="41.501" r="1.447" fill="#fff"/><path d="M52.678 63.996a6.027 6.027 0 0 1-12.054 0" fill="#434849"/></g></g></svg>
<svg viewBox="0 0 121.566 121.566" width="121.566" height="121.566" id="hedgehog" y="501"><circle cx="98.809" cy="20.075" r="9.647" fill="#945328"/><path d="M104.37 20.075a5.563 5.563 0 1 1-11.125.002 5.563 5.563 0 0 1 11.126-.002z" fill="#b57651"/><circle cx="21.359" cy="20.075" r="9.647" fill="#945328"/><path d="M26.92 20.075a5.564 5.564 0 0 1-5.56 5.565 5.563 5.563 0 1 1 5.56-5.565z" fill="#b57651"/><path fill-rule="evenodd" clip-rule="evenodd" fill="#603813" d="M.81 58.012L5.846 56l-4.87-2.395 5.18-1.62-4.672-2.762 5.288-1.215-4.44-3.115 5.366-.8-4.187-3.45 5.412-.378-3.902-3.767 5.426.044-3.6-4.062 5.405.467L8.98 28.62l5.355.88-2.935-4.563 5.27 1.285-2.578-4.773 5.16 1.678-2.212-4.954 5.017 2.063-1.836-5.105 4.854 2.43-1.453-5.227 4.66 2.784-1.063-5.322 4.44 3.12-.666-5.385 4.2 3.438-.27-5.42 3.934 3.737.127-5.424 3.65 4.013.523-5.4 3.352 4.265.91-5.347L50.45 5.89 51.743.62l2.71 4.702L56.11.156l2.372 4.88L60.502 0l1.988 5.04L64.878.177l1.575 5.184L69.216.703l1.17 5.29 3.107-4.438.775 5.362 3.422-4.2.394 5.403 3.706-3.953.02 5.417 3.964-3.692-.342 5.407 4.202-3.42-.7 5.372 4.42-3.135-1.053 5.315 4.616-2.84-1.4 5.236 4.794-2.527-1.744 5.13 4.95-2.2-2.086 5 5.09-1.856-2.43 4.842 5.21-1.492-2.77 4.657 5.304-1.11-3.11 4.438 5.374-.705-3.44 4.185 5.41-.282-3.76 3.9 5.414.154-4.068 3.577 5.382.61-4.36 3.215 5.312 1.07-4.62 2.827 5.196 1.526-4.852 2.412 5.044 1.98-5.038 2.047 4.872 2.413-5.176 1.667 4.676 2.773-5.288 1.27 4.453 3.12-5.37.863 4.202 3.452-5.418.447 3.923 3.764-5.437.032 3.624 4.054-5.423-.387 3.302 4.32-5.38-.802 2.96 4.562-5.3-1.21 2.603 4.773-5.192-1.616 2.23 4.958-5.054-2.008 1.842 5.117-4.884-2.39 1.445 5.242-4.688-2.756 1.042 5.336-4.465-3.103.633 5.4-4.216-3.432.225 5.433-3.948-3.74-.18 5.435-3.66-4.022-.58 5.407-3.356-4.278-.97 5.35-3.04-4.51-1.35 5.267-2.716-4.71-1.71 5.16-2.39-4.886-2.058 5.035-2.04-5.032-2.355 4.892-1.707-5.154-2.675 4.726-1.358-5.256-2.99 4.53-.99-5.337-3.3 4.31-.605-5.395-3.605 4.06-.21-5.425-3.892 3.784.195-5.425-4.167 3.48.606-5.396-4.42 3.152 1.018-5.333-4.65 2.8 1.43-5.236-4.855 2.43 1.833-5.11-5.03 2.044 2.23-4.95-5.175 1.64 2.61-4.76-5.287 1.232 2.977-4.54-5.367.814 3.322-4.294-5.414.39 3.65-4.02-5.43-.032 3.95-3.725-5.41-.452 4.225-3.41-5.362-.865 4.47-3.082-5.278-1.263 4.69-2.738-5.172-1.654 4.877-2.386z"/><path d="M32.358 109.212c-6.76-5.672-8.203-19.682-8.28-34.185-.083-16.28 2.066-33.18 10.323-39.61 15.613-12.155 27.073 3.038 27.073 3.038s11.46-15.193 27.073-3.038c8.702 6.776 10.362 23.454 10.26 39.61-.084 12.826-.46 25.323-5.12 32.273-4.205 6.268-36.7 22.58-61.328 1.912z" fill-rule="evenodd" clip-rule="evenodd" fill="#945328"/><g fill-rule="evenodd" clip-rule="evenodd"><path d="M77.075 101.08c-4.65 4.76-6.997 13.617-2.64 17.872 4.355 4.257 13.77 2.3 18.417-2.46 4.65-4.76 7.018-9.132.53-16.326-5.5-6.094-11.658-3.847-16.307.914z" fill="#824420"/><path d="M76.14 102.126c-4.202 4.304-6.017 12.616-1.66 16.87 4.358 4.256 13.235 2.846 17.44-1.457 4.203-4.304 6.25-8.35-.277-15.5-5.534-6.06-11.297-4.217-15.502.086z" fill="#75391b"/><path d="M46.06 101.08c4.65 4.76 6.996 13.617 2.64 17.872-4.356 4.257-13.77 2.3-18.418-2.46-4.65-4.76-7.018-9.132-.53-16.326 5.498-6.094 11.658-3.847 16.307.914z" fill="#824420"/><path d="M46.993 102.126c4.204 4.304 6.017 12.616 1.66 16.87-4.356 4.256-13.234 2.846-17.438-1.457-4.204-4.304-6.25-8.35.276-15.5 5.535-6.06 11.297-4.217 15.503.086z" fill="#75391b"/></g><g fill-rule="evenodd" clip-rule="evenodd"><circle cx="45.926" cy="55.094" r="3.521" fill="#1a1a1a"/><path d="M45.926 54.415a1.33 1.33 0 1 1 2.66 0 1.33 1.33 0 1 1-2.66 0z" fill="#fff"/><circle cx="74.412" cy="55.094" r="3.521" fill="#1a1a1a"/><path d="M74.413 54.415a1.33 1.33 0 1 1 2.658 0 1.33 1.33 0 1 1-2.657 0z" fill="#fff"/><g><path d="M66.406 51.573c-4.092 3.388-2.25 16.624-2.25 16.624H57.41s1.08-13.236-3.012-16.624h12.008z" fill="#a35e37"/><circle cx="60.782" cy="71.802" r="4.942" fill="#1a1a1a"/></g></g></svg>
<svg viewBox="0 0 115.277 115.277" width="115.277" height="115.277" id="hippopotamus" y="623"><g fill-rule="evenodd" clip-rule="evenodd"><path d="M101.616 72.315c0 19.176 0 34.936-42.545 34.722h-.776C15.75 109.42 15.75 91.49 15.75 72.315v-.566c0-19.177 19.048-34.722 42.544-34.722h.777c23.497 0 42.546 15.545 42.546 34.72v.567z" fill="#898179"/><path d="M75.256 89.267c-4.614 7.734-4.903 20.135 2.177 24.357 7.08 4.226 18.85-1.328 23.463-9.06 4.614-7.737 6.35-14.24-4.465-21.655-9.163-6.284-16.56-1.378-21.174 6.357z" fill="#938b82"/><path d="M74.36 90.94c-4.173 6.994-3.932 18.506 3.147 22.73 7.08 4.223 18.32-.44 22.49-7.435 4.174-6.992 5.59-12.963-5.264-20.31-9.2-6.227-16.2-1.98-20.374 5.015z" fill="#7a7169"/><path d="M40.02 89.267c4.614 7.734 4.903 20.135-2.177 24.357-7.078 4.226-18.848-1.328-23.463-9.06-4.613-7.737-6.348-14.24 4.465-21.655 9.164-6.284 16.56-1.378 21.176 6.357z" fill="#938b82"/><path d="M40.917 90.94c4.172 6.994 3.932 18.506-3.148 22.73-7.08 4.223-18.32-.44-22.49-7.435-4.175-6.992-5.59-12.963 5.263-20.31 9.198-6.227 16.2-1.98 20.374 5.015z" fill="#7a7169"/></g><circle cx="85.044" cy="10.69" r="7.5" fill="#938b82"/><circle cx="85.044" cy="10.69" r="4.324" fill="#595048"/><circle cx="31.544" cy="10.69" r="7.5" fill="#938b82"/><circle cx="31.544" cy="10.69" r="4.324" fill="#595048"/><ellipse cx="57.857" cy="34.229" rx="36.777" ry="34.229" fill-rule="evenodd" clip-rule="evenodd" fill="#938b82"/><g fill-rule="evenodd" clip-rule="evenodd"><circle cx="42.107" cy="27.702" r="4.074" fill="#434849"/><path d="M42.28 26.917a1.538 1.538 0 1 1 3.075 0 1.538 1.538 0 1 1-3.076 0z" fill="#fff"/><circle cx="73.609" cy="27.702" r="4.074" fill="#434849"/><path d="M73.78 26.917a1.54 1.54 0 1 1 3.077 0 1.538 1.538 0 1 1-3.078 0z" fill="#fff"/></g><path d="M92.544 52.876c0 10.64-9.99 19.264-22.31 19.264H47.427c-12.32 0-22.31-8.624-22.31-19.264 0-10.64 9.99-19.264 22.31-19.264h22.806c12.32 0 22.31 8.625 22.31 19.264z" fill-rule="evenodd" clip-rule="evenodd" fill="#b7b1ab"/><path d="M25.445 56.146s33.953 12.08 66.937-.952c0 0 .402 14.405-20.264 16.945H43.66s-16.128-2.99-18.215-15.994z" fill-rule="evenodd" clip-rule="evenodd" fill="#afa7a0"/><circle cx="49.057" cy="44.903" r="2.981" fill-rule="evenodd" clip-rule="evenodd" fill="#595048"/><circle cx="66.657" cy="44.903" r="2.981" fill-rule="evenodd" clip-rule="evenodd" fill="#595048"/><path d="M70.275 43.255l.306.38c.108.115.19.285.28.492l.15.33.077.387c.077.27.053.57.053.89a3.754 3.754 0 0 1-.208.98c-.13.326-.272.66-.503.952-.187.323-.495.55-.748.825-.346.215-.56.427-.942.567-.344.178-.7.25-1.044.314a3.8 3.8 0 0 1-1.003.014c-.313-.063-.612-.1-.863-.227l-.363-.153-.29-.207c-.183-.127-.335-.24-.43-.372l-.315-.375.38.303c.107.11.272.194.462.286.094.045.19.095.297.148l.353.104c.236.097.517.1.802.13.286 0 .593-.024.896-.083l.462-.122c.15-.046.285-.13.434-.187.283-.084.597-.37.85-.524.226-.243.51-.437.675-.724.21-.255.356-.54.485-.826.117-.286.203-.582.257-.863.025-.285.078-.56.03-.813l-.033-.365a21.37 21.37 0 0 1-.087-.313c-.05-.2-.103-.382-.19-.513l-.228-.435zm-24.653 0l-.224.434c-.09.13-.14.31-.19.512-.027.1-.057.203-.086.313-.012.116-.02.238-.033.365-.05.252.003.527.028.813.053.28.14.577.257.863.128.286.276.57.484.826.164.287.448.48.673.724.255.154.568.44.853.525.147.06.28.142.434.188l.46.12c.303.06.61.085.895.083.285-.03.565-.03.803-.128l.352-.104.295-.15c.19-.09.355-.176.463-.285l.38-.303-.315.375c-.094.13-.246.245-.43.372l-.29.207-.364.153c-.25.128-.55.163-.864.227a3.792 3.792 0 0 1-1.002-.013c-.344-.062-.7-.136-1.043-.313-.382-.14-.597-.352-.942-.566-.254-.273-.56-.5-.746-.824-.232-.29-.375-.626-.504-.95a3.796 3.796 0 0 1-.208-.98c0-.32-.024-.62.054-.892l.078-.387.148-.33c.09-.207.172-.377.28-.49l.302-.382z" fill="#a3a3a3"/><path d="M52.398 66.768h-6.684v-6.305s2.633.306 3.467.355c1.464.085 3.218.248 3.218.248v5.702zm12.535 0h6.684v-6.305s-2.633.306-3.467.355c-1.46.085-3.217.248-3.217.248v5.702z" fill-rule="evenodd" clip-rule="evenodd" fill="#fff"/></svg>
<svg viewBox="0 0 121.021 121.021" width="121.021" height="121.021" id="koala" y="739"><g fill-rule="evenodd" clip-rule="evenodd"><path d="M96.575 81.31c0 19.176 0 34.936-34.724 34.72h-.635c-34.72 2.384-34.72-15.544-34.72-34.72v-.566c0-19.176 15.544-34.72 34.72-34.72h.636c19.178 0 34.725 15.544 34.725 34.72v.566z" fill="#8c8b88"/><path d="M88.702 81.47c0 19.078 7.873 34.388-25.977 35.877-33.986 2-25.977-16.8-25.977-35.878v-.564c0-19.077 11.524-34.542 25.74-34.542h.47c14.22 0 25.744 15.465 25.744 34.542v.563z" fill="#e2e2e2"/><path d="M49.704 95.01c4.614 7.735 4.903 20.136-2.177 24.358-7.08 4.225-18.85-1.328-23.463-9.062-4.614-7.735-6.35-14.237 4.465-21.653 9.163-6.283 16.56-1.377 21.174 6.358z" fill="#9d9d9d"/><path d="M50.602 96.685c4.172 6.993 3.93 18.506-3.148 22.73-7.08 4.222-18.32-.44-22.49-7.435-4.174-6.992-5.59-12.963 5.264-20.31 9.198-6.228 16.2-1.98 20.374 5.015z" fill="#8c8b88"/><path d="M75.902 95.01c-4.614 7.735-4.903 20.136 2.177 24.358 7.078 4.225 18.848-1.328 23.462-9.062 4.614-7.735 6.35-14.237-4.465-21.653-9.164-6.283-16.56-1.377-21.175 6.358z" fill="#9d9d9d"/><path d="M75.005 96.685c-4.172 6.993-3.93 18.506 3.148 22.73 7.08 4.222 18.32-.44 22.49-7.435 4.174-6.992 5.59-12.963-5.264-20.31-9.2-6.228-16.2-1.98-20.375 5.015z" fill="#8c8b88"/><g><circle cx="96.81" cy="20.857" r="20.857" fill="#9d9d9d"/><circle cx="24.21" cy="20.857" r="20.856" fill="#9d9d9d"/><ellipse cx="25.168" cy="28.202" rx="15.644" ry="14.791" fill="#e2e2e2"/><ellipse cx="96.575" cy="28.202" rx="15.644" ry="14.791" fill="#e2e2e2"/><path d="M24.21 38.21c0-18.68 16.71-33.822 37.325-33.822C82.15 4.388 98.86 19.53 98.86 38.21s-9.247 33.822-37.325 33.822C31.56 72.032 24.21 56.89 24.21 38.21z" fill="#9d9d9d"/><circle cx="42.522" cy="39.882" r="4.074" fill="#434849"/><path d="M42.693 39.095a1.54 1.54 0 1 1 3.076 0 1.538 1.538 0 1 1-3.077 0z" fill="#fff"/><circle cx="80.027" cy="39.882" r="4.074" fill="#434849"/><path d="M80.198 39.095a1.54 1.54 0 1 1 3.077 0 1.538 1.538 0 1 1-3.077 0z" fill="#fff"/><g><path d="M68.598 55.45a5.65 5.65 0 0 1-5.65 5.65h-2.823a5.65 5.65 0 0 1-5.65-5.65V41.458a5.65 5.65 0 0 1 5.65-5.65h2.823a5.65 5.65 0 0 1 5.65 5.65V55.45z" fill="#434849"/><circle cx="59.346" cy="57.946" r=".933"/><circle cx="63.659" cy="57.946" r=".934"/></g></g></g></svg>
<svg viewBox="0 0 114.358 114.358" width="114.358" height="114.358" id="lemur" y="861"><g fill-rule="evenodd" clip-rule="evenodd"><path d="M91.795 76.92c0 19.177 0 34.937-34.725 34.722h-.635c-34.72 2.383-34.72-15.545-34.72-34.72v-.567c0-19.176 15.544-34.72 34.72-34.72h.635c19.178 0 34.725 15.544 34.725 34.72v.566z" fill="#ae8661"/><path d="M83.922 77.08c0 19.08 5.645 34.79-25.744 34.545h-.47c-30.142 2.563-25.74-15.465-25.74-34.544v-.562c0-19.077 11.524-34.542 25.74-34.542h.47c14.22 0 25.744 15.465 25.744 34.542v.563z" fill="#e2d1c5"/><path d="M47.233 91.595c4.04 6.77 4.29 17.62-1.904 21.316-6.196 3.7-16.497-1.16-20.536-7.93-4.037-6.77-5.556-12.46 3.908-18.95 8.02-5.498 14.492-1.204 18.53 5.565z" fill="#a37c5b"/><path d="M48.018 93.06c3.65 6.12 3.44 16.196-2.755 19.89-6.196 3.698-16.032-.383-19.684-6.504-3.653-6.12-4.892-11.345 4.606-17.775 8.052-5.45 14.18-1.73 17.832 4.39z" fill="#8e694d"/><path d="M68.12 91.595c-4.04 6.77-4.292 17.62 1.903 21.316 6.195 3.7 16.496-1.16 20.535-7.93 4.037-6.77 5.556-12.46-3.908-18.95-8.02-5.498-14.49-1.204-18.53 5.565z" fill="#a37c5b"/><path d="M67.334 93.06c-3.65 6.12-3.44 16.196 2.755 19.89 6.195 3.698 16.03-.383 19.683-6.504 3.652-6.12 4.89-11.345-4.607-17.775-8.05-5.45-14.18-1.73-17.832 4.39z" fill="#8e694d"/></g><g fill-rule="evenodd" clip-rule="evenodd"><circle cx="91.489" cy="13.238" r="9.107" fill="#b28b6b"/><ellipse cx="91.128" cy="13.238" rx="6.831" ry="6.458" fill="#8e694d"/><circle cx="22.869" cy="13.238" r="9.106" fill="#b28b6b"/><ellipse cx="22.508" cy="13.238" rx="6.831" ry="6.458" fill="#8e694d"/></g><path d="M19.43 33.822C19.43 15.142 36.14 0 56.754 0 77.37 0 94.08 15.142 94.08 33.822s-9.248 33.822-37.326 33.822c-29.976 0-37.324-15.143-37.324-33.822z" fill-rule="evenodd" clip-rule="evenodd" fill="#b28b6b"/><g fill-rule="evenodd" clip-rule="evenodd"><path d="M46.797 16.637S42.037 9.28 32.1 18.94c-9.23 8.972-10.385 20.39-7.45 24.89 2.02 3.096 16.897 8.39 26.347-.64 9.45-9.026-4.2-26.553-4.2-26.553z" fill="#8e694d"/><circle cx="39.194" cy="33.28" r="11.628" fill="#7f5c44"/><path d="M48.043 33.28a8.85 8.85 0 0 0-17.7 0 8.85 8.85 0 0 0 8.85 8.85c4.885 0 8.85-3.962 8.85-8.85z" fill="#434849"/><path d="M39.816 31.572a3.092 3.092 0 0 1 6.183 0 3.09 3.09 0 1 1-6.184 0z" fill="#d0d1d2"/><circle cx="37.357" cy="34.947" r="1.011" fill="#d0d1d2"/></g><path d="M66.916 16.637s4.697-7.29 14.698 2.303c9.874 9.472 9.513 20.722 6.536 24.722-2.207 2.966-15.984 8.556-25.434-.47-9.448-9.028 4.2-26.555 4.2-26.555z" fill-rule="evenodd" clip-rule="evenodd" fill="#8e694d"/><circle cx="74.097" cy="33.28" r="11.628" fill-rule="evenodd" clip-rule="evenodd" fill="#7f5c44"/><g fill-rule="evenodd" clip-rule="evenodd"><circle cx="74.096" cy="33.281" r="8.85" fill="#434849"/><path d="M74.718 31.572a3.092 3.092 0 0 1 6.183 0 3.09 3.09 0 1 1-6.182 0z" fill="#d0d1d2"/><circle cx="72.259" cy="34.947" r="1.011" fill="#d0d1d2"/></g><path d="M59.385 43.606c0 1.826-1.133 3.306-2.528 3.306-1.396 0-2.528-1.48-2.528-3.306V16.544c0-1.826 1.13-3.306 2.527-3.306 1.396 0 2.528 1.48 2.528 3.306v27.062z" fill-rule="evenodd" clip-rule="evenodd" fill="#e2d1c5"/><path d="M65.3 51.994a7.418 7.418 0 0 1-7.42 7.418h-2.253a7.418 7.418 0 0 1 0-14.836h2.254a7.418 7.418 0 0 1 7.42 7.418z" fill-rule="evenodd" clip-rule="evenodd" fill="#e2d1c5"/><path d="M52.12 50.934c-.715-.837-.398-1.52.7-1.52h7.658c1.1 0 1.416.684.702 1.52l-3.233 3.79c-.714.838-1.882.838-2.596 0l-3.23-3.79z" fill-rule="evenodd" clip-rule="evenodd" fill="#e49788"/></svg>
<svg viewBox="0 0 110.927 110.927" width="110.927" height="110.927" id="pig" y="976"><path d="M81.87 73.463c0 20.565 0 37.465-37.237 37.235h-.682C6.715 113.254 6.715 94.028 6.715 73.463v-.607c0-20.564 16.672-37.235 37.236-37.235h.682c20.563 0 37.236 16.67 37.236 37.236v.607z" fill-rule="evenodd" clip-rule="evenodd" fill="#f68084"/><path d="M75.334 92.353c4.51 3.805 11.985 4.545 17.303 2.087 3.14-1.448 10.792-7.838 3.886-9.813-3.745-1.07-7.313 1.4-6.898 5.273.58 5.448 6.193 8.135 11.068 7.882 1.736-.088 5.6-2.866 2.105-2.686-4.256.22-8.486-3.48-7.97-7.986.036-.16.08-.316.124-.476-2.436-.004-2.71.57-.825 1.725.62 1.465-2.435 3.528-3.265 4.072-2.986 1.962-8.184.046-10.65-2.038-1.304-1.098-6.12.913-4.878 1.96z" fill="#f68084"/><g fill-rule="evenodd" clip-rule="evenodd"><path d="M58.057 18.108S60.282 6.268 72.523.598c0 0 6.578 10.972 2.89 23.52" fill="#f6a3a5"/><path d="M59.375 20.656S61.1 11.478 70.588 7.083c0 0 5.1 8.505 2.24 18.232" fill="#f68084"/><path d="M30.885 17.51S28.66 5.67 16.42 0c0 0-6.58 10.972-2.89 23.52" fill="#f6a3a5"/><path d="M29.567 20.057S27.843 10.88 18.354 6.484c0 0-5.1 8.505-2.24 18.23" fill="#f68084"/></g><defs><path id="aia" d="M6.966 42.382c0-18.68 16.71-33.822 37.325-33.822 20.616 0 37.326 15.142 37.326 33.822 0 18.68-9.247 33.822-37.325 33.822-29.975 0-37.324-15.142-37.324-33.822z"/></defs><use xlink:href="#aia" overflow="visible" fill-rule="evenodd" clip-rule="evenodd" fill="#f6a3a5"/><g fill-rule="evenodd" clip-rule="evenodd"><circle cx="26.237" cy="38.385" r="3.832" fill="#434849"/><circle cx="27.685" cy="37.646" r="1.447" fill="#fff"/><circle cx="61.889" cy="37.675" r="3.832" fill="#434849"/><circle cx="63.337" cy="36.936" r="1.447" fill="#fff"/><g><circle cx="44.292" cy="51.733" r="13.037" fill="#f68084"/><g fill="#db6971"><circle cx="38.541" cy="51.733" r="1.663"/><circle cx="50.041" cy="51.733" r="1.663"/></g></g></g></svg>
<svg viewBox="0 0 116.667 116.667" width="116.667" height="116.667" id="tiger" y="1087"><path d="M111.345 110.98a4.607 4.607 0 0 1-4.608 4.607H56.32a4.607 4.607 0 0 1 0-9.214h50.417a4.608 4.608 0 0 1 4.608 4.607z" fill="#c7631b"/><path d="M106.737 106.372a4.607 4.607 0 1 1 0 9.215m-9.85-9.214h3.334v9.214H96.89zm-8 0h3.334v9.214H88.89zm-8 0h3.334v9.214H80.89z" fill="#333"/><path d="M81.304 79.202c0 20.565 0 37.465-37.236 37.236h-.682C6.15 118.993 6.15 99.768 6.15 79.202v-.607c0-20.564 16.672-37.235 37.236-37.235h.682c20.563 0 37.236 16.67 37.236 37.235v.607z" fill-rule="evenodd" clip-rule="evenodd" fill="#c56a27"/><circle cx="68.313" cy="11.816" r="11.817" fill="#e38032"/><circle cx="68.313" cy="11.816" r="6.813" fill="#754c24"/><circle cx="17.139" cy="11.816" r="11.817" fill="#e38032"/><circle cx="17.139" cy="11.816" r="6.813" fill="#754c24"/><defs><path id="aja" d="M6.402 36.167c0-18.68 16.71-33.822 37.325-33.822 20.615 0 37.325 15.142 37.325 33.822 0 18.68-9.247 33.822-37.325 33.822-29.976 0-37.325-15.143-37.325-33.823z"/></defs><use xlink:href="#aja" overflow="visible" fill-rule="evenodd" clip-rule="evenodd" fill="#e38032"/><g fill-rule="evenodd" clip-rule="evenodd"><circle cx="29.389" cy="28.234" r="4.074" fill="#333"/><path d="M29.56 27.448a1.54 1.54 0 1 1 3.077 0 1.538 1.538 0 1 1-3.077 0z" fill="#fff"/><circle cx="59.638" cy="28.234" r="4.074" fill="#333"/><path d="M59.81 27.448a1.54 1.54 0 1 1 3.076 0 1.54 1.54 0 1 1-3.077 0z" fill="#fff"/></g><g fill-rule="evenodd" clip-rule="evenodd" fill="#333"><path d="M7.436 28.234l11.7 6.243-12.62 5.578s-.61-8.335.92-11.82zM6.814 43.29l18.5-.955-13.682 15.16S7.866 52.637 6.814 43.29zM80.012 28.234l-11.7 6.243 12.62 5.578s.612-8.335-.92-11.82zm.622 15.055l-18.5-.955 13.268 14.7s4.18-4.398 5.232-13.746z"/></g><path fill-rule="evenodd" clip-rule="evenodd" fill="#f3ab32" d="M38.7 24.16h12.624l6.625 26.394H32.636z"/><path d="M57.95 50.554c0 5.7-5.667 10.32-12.657 10.32s-12.655-4.62-12.655-10.32" fill-rule="evenodd" clip-rule="evenodd" fill="#333"/><path d="M37.407 68.527c-1.22 0-2.57-.165-4.052-.494a.502.502 0 0 1 .217-.977c3.983.888 6.91.523 8.7-1.082 2.287-2.05 1.934-5.52 1.93-5.555a.5.5 0 0 1 .994-.113c.02.162.42 4.005-2.25 6.405-1.343 1.21-3.198 1.815-5.54 1.815z" fill="#333"/><path d="M52.044 68.18c-2.342 0-4.196-.605-5.54-1.813-2.67-2.4-2.268-6.243-2.25-6.405a.49.49 0 0 1 .554-.44.5.5 0 0 1 .44.552c-.003.035-.357 3.505 1.932 5.555 1.788 1.604 4.718 1.968 8.7 1.08a.5.5 0 0 1 .216.978c-1.48.327-2.833.492-4.052.492z" fill="#333"/></svg>
<svg viewBox="0 0 136.454 136.454" width="136.454" height="136.454" id="whale" y="1204"><path d="M80.278 64.89s4.976 23.74 23.54 15.134c0 0-7.757-7.357-4.507-11.678 3.25-4.324 15.9-17.247 15.9-17.247s10.337 10.585 1.206 20.646c0 0 9.104-7.737 20.037 1.11 0 0-15.064 22.97-24.867 13.944 0 0-17.727 27.917-60.322 31.25" fill="#469b9d"/><path d="M40.238 33.192S37.89 29.67 32.02 30.06c-5.87.392-2.348-8.608 4.11-7.435 6.457 1.174 3.326 6.26 4.108 10.567zm.65-10.672s.1-2.652-3.026-4.61c-3.126-1.956 1.97-5.234 4.817-2.267 2.848 2.968-.61 4.402-1.793 6.877zm1.318 10.672s2.348-3.523 8.217-3.132c5.87.392 2.35-8.608-4.108-7.435-6.457 1.174-3.327 6.26-4.11 10.567z" fill="#2595ce"/><circle cx="41.221" cy="78.069" r="41.221" fill="#469b9d"/><path d="M.055 80.204s14.175 5.596 24.787-.976c6.02-3.727 5.46 22.983 22.92 27.663 17.462 4.68 46.445-2.305 63.825-20.09 0 0-36.72 53.404-90.785 28.655 0 0-19.907-8.505-20.747-35.25z" fill="#d8d8d8"/><path d="M35.253 77.822c-.01 3.154.427 6.3 1.31 9.293.227.746.486 1.48.78 2.2.3.717.64 1.413 1.01 2.09l.6.99.67.94.727.89c.25.288.53.55.795.827.558.52 1.14 1.017 1.78 1.43.307.23.64.415.977.593.333.186.664.375 1.022.51.69.324 1.424.544 2.157.76.75.155 1.49.362 2.26.413l1.146.12 1.155.035c.772.056 1.546-.053 2.32-.07.77-.063 1.54-.185 2.312-.273l2.294-.445-.257.17c.192-.275.37-.67.523-1.03.14-.377.27-.76.358-1.158.118-.39.148-.803.228-1.203.032-.41.087-.817.1-1.23-.005-.41.016-.825-.01-1.24l-.107-1.24-.212-1.233c-.058-.413-.198-.812-.292-1.22-.107-.404-.2-.813-.353-1.207l-.412-1.19c-.134-.4-.316-.78-.474-1.173-.165-.388-.32-.782-.495-1.166-.383-.752-.748-1.518-1.15-2.264l-1.273-2.207 1.443 2.106c.45.722.864 1.468 1.3 2.204.2.376.38.765.572 1.146.182.388.397.76.55 1.162l.468 1.2c.17.395.282.81.407 1.223.113.415.27.82.348 1.245l.268 1.27.16 1.293c.045.433.04.87.062 1.307.003.437-.037.875-.06 1.313-.077.434-.105.875-.227 1.304a9.826 9.826 0 0 1-.38 1.277c-.176.423-.332.814-.622 1.242l-.09.135-.167.035-2.347.485c-.794.103-1.585.236-2.383.313-.803.03-1.6.148-2.41.103l-1.21-.023c-.4-.026-.803-.088-1.205-.132-.807-.063-1.596-.29-2.385-.465-.778-.24-1.554-.485-2.29-.84-.38-.15-.732-.355-1.087-.56a7.87 7.87 0 0 1-1.036-.646c-.68-.452-1.296-.99-1.883-1.552-.277-.297-.57-.58-.833-.89l-.755-.953-.666-1.014-.59-1.057a22.666 22.666 0 0 1-.966-2.205 25.866 25.866 0 0 1-.715-2.288 28.07 28.07 0 0 1-.494-2.338 32.56 32.56 0 0 1-.27-2.366c-.12-1.58-.15-3.17.007-4.744z" fill="#218588"/><g fill-rule="evenodd" clip-rule="evenodd"><circle cx="17.305" cy="64.244" r="3.832" fill="#434849"/><circle cx="18.752" cy="63.506" r="1.447" fill="#fff"/></g></svg>
<svg viewBox="0 0 120.301 120.301" width="120.301" height="120.301" id="zebra" y="1341"><path d="M103.77 74.586c-1.092 1.397-4.25 5.477-2.814 11.726.634 2.754 1.352 4.397 1.907 5.635.578 1.236 2.143 3.635 3.492 4.8 1.1-1.4 1.462-1.587 2.606-3.44.71-1.155 1.35-2.963 1.224-4.243-.126-1.28-.29-2.654-1.25-4.52-.58-1.238-5.196-6.615-5.163-9.958z" fill="#3c3c3b"/><path d="M107.772 95.89c.178-.716.303-1.473.37-2.273a2.873 2.873 0 0 0-5.725-.476c-.783 9.36-16.933 9.07-17.098 9.066a2.872 2.872 0 1 0-.138 5.744c.84.02 19.523.315 22.59-12.06z" fill="#e2e2e2"/><path d="M87.865 81.547c0 21.273 0 38.756-38.52 38.518h-.705c-38.52 2.643-38.52-17.244-38.52-38.518v-.628c0-21.273 17.247-38.52 38.52-38.52h.705c21.272 0 38.52 17.246 38.52 38.52v.627z" fill-rule="evenodd" clip-rule="evenodd" fill="#d8d8d8"/><path d="M87.286 90.016c-1.002.54-2.425 1.14-3 1.4a26.655 26.655 0 0 1-6.082 1.876c-4.108.762-8.205.68-12.156.14 3.973-.34 7.882-1.172 11.39-2.685a23.296 23.296 0 0 0 4.847-2.778c.624-.476 4.432-3.49 5.58-4.594-.01 4.533-.004 4.503-.087 6.358l-.492.282zm-1.143 12.173c-1.034.475-2.49.988-3.08 1.212a26.59 26.59 0 0 1-6.187 1.502c-4.146.51-8.23.18-12.14-.6 3.985-.098 7.94-.69 11.532-1.986 1.795-.64 3.395-1.64 5.006-2.48 3.596-1.874 4.948-3.737 6.162-4.768-.01 2.01-.548 4.066-.68 4.563-.047.18-.562 2.377-.613 2.556zM10.68 90.015c1 .54 2.424 1.14 3 1.4 1.986.89 4.03 1.498 6.082 1.876 4.108.762 8.205.68 12.156.14-3.973-.34-7.882-1.172-11.39-2.685a23.296 23.296 0 0 1-4.847-2.778c-.623-.476-4.43-3.49-5.58-4.594.01 4.533.005 4.503.088 6.358l.49.282zm1.06 12.33c1.035.477 2.572.833 3.162 1.057a26.59 26.59 0 0 0 6.187 1.502c4.145.51 8.23.18 12.14-.6-3.986-.098-7.94-.69-11.533-1.986-1.795-.64-3.395-1.64-5.006-2.48-3.595-1.875-4.947-3.738-6.16-4.77.17 2.205.353 3.4.766 5.507.036.183.394 1.59.445 1.77z" fill="#3c3c3b"/><g fill-rule="evenodd" clip-rule="evenodd"><path d="M44.876 13.933c-3.946-6.143 0-12.94 0-12.94s.844 1.26 1.272 1.16c0 0 .876-1.445 1.733-1.73 0 0-.143.923 0 1.347 0 0 1.503-1.416 3.005-1.77v1.77s.965-.105 1.573-1.063v1.346s.966-.495 1.287-1.204c0 0 4.075 7.224 0 13.083M38.58 19.54S35 7.604 21.79 3.108c0 0-5.57 12.004-.406 24.507" fill="#4d4d4d"/><path d="M37.502 22.305s-2.774-9.253-13.015-12.738c0 0-4.318 9.306-.315 18.998" fill="#f4a3a6"/><path d="M58.708 17.53s4.953-11.437 18.6-14.356c0 0 4.125 12.574-2.468 24.388" fill="#4d4d4d"/><path d="M59.454 20.4s3.84-8.864 14.418-11.127c0 0 3.2 9.747-1.912 18.905" fill="#f4a3a6"/></g><defs><path id="ala" d="M15.852 45.822c0-19.893 16.943-36.312 33.14-36.312 15.55 0 31.28 15.51 33.388 35.283 2.1 19.705-5.424 41.933-33.387 41.933-32.27 0-33.14-21.01-33.14-40.904z"/></defs><use xlink:href="#ala" overflow="visible" fill-rule="evenodd" clip-rule="evenodd" fill="#d8d8d8"/><g fill-rule="evenodd" clip-rule="evenodd"><circle cx="33.311" cy="45.259" r="3.965" fill="#434849"/><path d="M33.31 44.495a1.497 1.497 0 1 1 2.994 0 1.496 1.496 0 1 1-2.993 0z" fill="#fff"/><circle cx="63.419" cy="44.525" r="3.965" fill="#434849"/><path d="M63.42 43.76a1.497 1.497 0 1 1 2.993 0 1.497 1.497 0 1 1-2.993 0z" fill="#fff"/><g><path d="M76.956 70.99c0 8.69-15.24 16.44-24.803 16.44h-8.36c-9.563 0-23.217-7.75-23.217-16.44 0-8.693 7.752-15.738 17.314-15.738h21.752c9.562 0 17.314 7.045 17.314 15.737z" fill="#4d4d4d"/><g fill="#333"><circle cx="42.581" cy="62" r="2.981"/><circle cx="54.219" cy="62" r="2.981"/></g></g></g><path d="M17.796 34.074l8.913 4.49-10-.264s.112-1.63 1.086-4.226zM15.91 44.04l9.406.56-9.463 3.89s-.102-2.438.056-4.45zm.04 9.165l11.438-1.145-11.152 6.068a31.612 31.612 0 0 1-.287-4.923zm63.85-19.13l-9.252 4.49 10.595-.363s-.368-1.532-1.342-4.128zm2.456 9.685l-10.315.84 10.693 3.397s.077-1.772-.377-4.237zm.413 9.318L71.097 52.06l11.153 5.854s.48-2.195.42-4.836z" fill-rule="evenodd" clip-rule="evenodd" fill="#333"/><path d="M68.43 17.547c-1.272-1.07-2.8-2.624-4.322-3.27L60.61 27.163l7.82-9.617zm-39.545.223l7.81 9.97-3.383-13.305c-1.363.528-1.615 1.175-2.737 1.94-.19.13-1.507 1.265-1.69 1.395z" fill="#3c3c3b"/></svg>
</svg>