<svg xmlns="http://www.w3.org/2000/svg" xmlns:xlink="http://www.w3.org/1999/xlink" viewBox="0 0 125.397 125.397" enable-background="new 0 0 125.397 125.397"><path d="M96.793 85.864c0 21.701 0 39.536-39.294 39.292h-.719c-39.295 2.696-39.295-17.591-39.295-39.292v-.641c0-21.7 17.593-39.292 39.295-39.292h.719c21.7 0 39.294 17.592 39.294 39.292v.641z" fill-rule="evenodd" clip-rule="evenodd" fill="#775236"/><path d="M113.019 78.763c-1.116 1.425-4.337 5.587-2.872 11.961.646 2.809 1.379 4.486 1.945 5.748.59 1.261 2.187 3.708 3.563 4.896 1.122-1.427 1.491-1.618 2.659-3.507.724-1.18 1.377-3.024 1.249-4.33-.128-1.305-.297-2.707-1.275-4.609-.593-1.264-5.302-6.749-5.269-10.159z" fill="#5E3B28"/><path d="M117.101 100.494c.183-.729.31-1.502.378-2.318.133-1.613-1.064-3.029-2.678-3.163-1.612-.132-3.026 1.064-3.162 2.678-.799 9.549-17.274 9.253-17.442 9.248-1.618-.037-2.962 1.239-2.998 2.859-.039 1.618 1.241 2.961 2.858 3 .856.019 19.915.321 23.044-12.304z" fill="#775236"/><path d="M64.859 16.403s12.515-6.202 15.297-16.403c0 0 5.062 15.065-2.028 24.875-.001 0-4.897-7.037-13.269-8.472zm-16.282 0s-12.515-6.202-15.297-16.403c0 0-5.062 15.065 2.028 24.875 0 0 4.897-7.037 13.269-8.472z" fill="#333"/><defs><path id="a" d="M23.332 49.42c0-20.292 17.052-35.008 33.576-35.008 15.861 0 32.139 13.787 34.291 33.96 2.142 20.101-5.533 42.776-34.06 42.776-32.918-.001-33.807-21.435-33.807-41.728z"/></defs><use xlink:href="#a" overflow="visible" fill-rule="evenodd" clip-rule="evenodd" fill="#856040"/><clipPath><use xlink:href="#a" overflow="visible"/></clipPath><path d="M63.231 49.596c-.54-18.882 14.565-25.756 15.707-26.468 4.654 3.938 5.546 5.179 8.393 10.114.685 1.186 1.959 6.827 1.977 6.964 0 0 1.212-1.939 1.89 3.847.646 5.51 1.107 10.228 0 16.646-.273.103-27.404 8.613-27.967-11.103z" fill="#775236"/><path d="M85.666 75.094c0 8.866-15.549 16.772-25.302 16.772h-8.529c-9.755 0-23.684-7.906-23.684-16.772 0-8.867 7.908-16.054 17.663-16.054h22.19c9.753 0 17.662 7.187 17.662 16.054z" fill-rule="evenodd" clip-rule="evenodd" fill="#5E3B28"/><path d="M78.938 23.128s21.667-2.51 24.791 9.241c3.125 11.753 4.172 15.697 4.172 15.697s-22.295.147-25.418-11.604c-3.122-11.749-3.545-13.334-3.545-13.334z" fill="#856040"/><path d="M84.071 27.546s13.99-1.618 16.005 5.966l2.694 10.133s-14.394.096-16.411-7.49c-2.017-7.586-2.288-8.609-2.288-8.609z" fill="#E49788"/><path d="M34.782 23.686s-21.667-2.51-24.792 9.241l-4.171 15.696s22.294.147 25.418-11.603c3.123-11.749 3.545-13.334 3.545-13.334z" fill="#856040"/><path d="M29.65 28.104s-13.99-1.619-16.005 5.965l-2.694 10.134s14.394.095 16.411-7.491c2.017-7.585 2.288-8.608 2.288-8.608z" fill="#E49788"/><g fill-rule="evenodd" clip-rule="evenodd"><circle cx="41.142" cy="48.846" r="4.044" fill="#1A1A1A"/><path d="M41.142 48.066c0-.845.681-1.53 1.526-1.53.848 0 1.527.685 1.527 1.53 0 .844-.68 1.529-1.527 1.529-.845.001-1.526-.684-1.526-1.529z" fill="#fff"/><circle cx="71.856" cy="48.098" r="4.044" fill="#1A1A1A"/><path d="M71.856 47.316c0-.843.681-1.529 1.526-1.529.847 0 1.527.687 1.527 1.529 0 .845-.68 1.53-1.527 1.53-.845.001-1.526-.685-1.526-1.53z" fill="#fff"/></g><g fill-rule="evenodd" clip-rule="evenodd" fill="#1A1A1A"><circle cx="49.217" cy="66.426" r="2.41"/><circle cx="64.599" cy="66.426" r="2.41"/></g><path d="M56.908 74.867c-4.655 0-8.441-3.787-8.441-8.441 0-.414.336-.75.75-.75s.75.336.75.75c0 3.827 3.114 6.941 6.941 6.941 3.828 0 6.942-3.114 6.942-6.941 0-.414.336-.75.75-.75s.75.336.75.75c0 4.655-3.787 8.441-8.442 8.441z" fill="#BDBCBC"/></svg>