<svg xmlns="http://www.w3.org/2000/svg" viewBox="0 0 115.572 115.572" enable-background="new 0 0 115.572 115.572"><g fill-rule="evenodd" clip-rule="evenodd"><path d="M70.191 114.09c0 .818-.664 1.482-1.483 1.482-.818 0-1.482-.664-1.482-1.482v-9.222c0-.819.664-1.483 1.482-1.483.819 0 1.483.664 1.483 1.483v9.222zm6.298-4.056c.601.555.64 1.492.084 2.095-.555.602-1.494.639-2.095.083l-6.775-6.256c-.603-.555-.64-1.493-.084-2.095.555-.602 1.493-.639 2.095-.083l6.775 6.256zm-15.563 0c-.602.555-.64 1.492-.083 2.095.555.602 1.493.639 2.095.083l6.775-6.256c.602-.555.64-1.493.084-2.095-.556-.602-1.493-.639-2.095-.083l-6.776 6.256zm-12.369 4.056c0 .818-.663 1.482-1.483 1.482-.818 0-1.482-.664-1.482-1.482v-9.222c0-.819.664-1.483 1.482-1.483.82 0 1.483.664 1.483 1.483v9.222zm6.299-4.056c.601.555.64 1.492.083 2.095-.555.602-1.493.639-2.095.083l-6.775-6.256c-.603-.555-.64-1.493-.084-2.095.556-.602 1.493-.639 2.095-.083l6.776 6.256zm-15.564 0c-.602.555-.639 1.492-.083 2.095.556.602 1.493.639 2.095.083l6.775-6.256c.603-.555.64-1.493.084-2.095-.555-.602-1.493-.639-2.095-.083l-6.776 6.256z" fill="#E7831E"/><path d="M90.383 73.638c0 17.674-14.327 32-32 32h-1.193c-17.673 0-32-14.326-32-32v-36.25c0-17.674 14.327-32 32-32h1.193c17.673 0 32 14.326 32 32v36.25zm-33.193-68.25s14.515.056 17.018-5.388c0 0 1.926 2.22 0 5.388 0 0 .169 1.165 3.17 0 0 0 1.668.608-4.667 3.388" fill="#FDBD2C"/><path d="M77.643 85.781c0 10.966-8.89 19.856-19.856 19.856-10.967 0-19.856-8.891-19.856-19.856v-6.476c0-10.967 8.89-19.857 19.856-19.857 10.967 0 19.856 8.891 19.856 19.857v6.476z" fill="#F4C778"/><path d="M82.053 61.017l4.084 14.867c.936 3.41 4.459 5.414 7.869 4.477 3.408-.936 5.413-4.459 4.476-7.868 0 0-.992-4.628-1.66-6.046-1.675-3.559-4.693-6.683-14.769-5.43zm-48.534 0l-4.083 14.867c-.937 3.41-4.459 5.414-7.868 4.477-3.41-.936-5.414-4.459-4.478-7.868 0 0 .994-4.628 1.661-6.046 1.675-3.559 4.693-6.683 14.768-5.43z" fill="#F2B02A"/><circle cx="43.294" cy="40.091" r="3.965" fill="#1A1A1A"/><path d="M43.294 39.327c0-.828.668-1.5 1.496-1.5.832 0 1.498.672 1.498 1.5 0 .826-.666 1.498-1.498 1.498-.828 0-1.496-.672-1.496-1.498z" fill="#fff"/><circle cx="72.278" cy="40.091" r="3.964" fill="#1A1A1A"/><path d="M72.279 39.327c0-.828.668-1.5 1.496-1.5.832 0 1.497.672 1.497 1.5 0 .826-.665 1.498-1.497 1.498-.828 0-1.496-.672-1.496-1.498z" fill="#fff"/><path fill="#E7831E" d="M57.786 57.386l-3.781-6.549-3.781-6.549h15.125l-3.781 6.549z"/></g></svg>