<svg xmlns="http://www.w3.org/2000/svg" viewBox="0 0 136.394 136.394" enable-background="new 0 0 136.394 136.394"><g fill-rule="evenodd" clip-rule="evenodd"><path d="M106.796 78.378c2.753-4.492 8.627-5.903 13.118-3.149 4.492 2.753 5.902 8.625 3.15 13.118m-22.172 6.765c3.721-3.731 9.761-3.739 13.491-.02 3.73 3.722 3.738 9.761.018 13.492m-26.312-2.474c4.731-2.316 10.445-.359 12.763 4.373 2.317 4.732.358 10.445-4.372 12.763m-66.408-44.868c-2.753-4.492-8.626-5.903-13.118-3.149-4.492 2.753-5.901 8.625-3.149 13.118m23.724 6.765c-3.72-3.731-9.761-3.739-13.491-.02-3.73 3.722-3.738 9.761-.018 13.492m26.311-2.474c-4.731-2.316-10.445-.359-12.763 4.373-2.316 4.732-.358 10.445 4.373 12.763M115.488 48.326l-11.818 17.458c-1.598 2.429-3.709 1.17-5.75-.176-2.042-1.345 2.372-10.309 3.972-12.737l6.2-9.414" fill="#CC4428"/><path d="M132.772 26.126c5.275 5.956 4.724 15.061-1.23 20.335-5.957 5.275-15.061 4.722-20.336-1.232m17.837-29.579c-8.301-4.982-19.068-2.294-24.052 6.008-4.982 8.3-2.291 19.066 6.009 24.05" fill="#E4552C"/><path d="M20.906 48.326l11.816 17.458c1.6 2.429 3.709 1.17 5.751-.176 2.042-1.345-2.373-10.309-3.971-12.737l-6.201-9.414" fill="#CC4428"/><path d="M3.623 26.126c-5.276 5.956-4.725 15.061 1.228 20.335 5.957 5.275 15.06 4.722 20.336-1.232m-17.836-29.579c8.302-4.982 19.069-2.294 24.051 6.008 4.983 8.3 2.291 19.066-6.008 24.05m74.955 2.775c5.444 6.944 8.689 15.693 8.689 25.201 0 22.573-18.299 40.874-40.873 40.874s-40.874-18.301-40.874-40.874c0-9.91 3.526-18.997 9.393-26.072" fill="#E4552C"/><path d="M57.826 56.442c0 2.508-2.034 4.543-4.543 4.543h-1.328c-2.508 0-4.541-2.035-4.541-4.543v-17.662c0-2.509 2.033-4.541 4.541-4.541h1.328c2.509 0 4.543 2.032 4.543 4.541v17.662zm32.01 0c0 2.508-2.032 4.543-4.541 4.543h-1.328c-2.508 0-4.541-2.035-4.541-4.543v-17.662c0-2.509 2.033-4.541 4.541-4.541h1.328c2.509 0 4.541 2.032 4.541 4.541v17.662z" fill="#E4552C"/><circle cx="84.632" cy="39.953" r="3.514" fill="#434849"/><path d="M84.632 39.276c0-.735.592-1.331 1.326-1.331.735 0 1.328.596 1.328 1.331 0 .731-.593 1.328-1.328 1.328-.734.001-1.326-.596-1.326-1.328z" fill="#fff"/><circle cx="52.62" cy="39.953" r="3.514" fill="#434849"/><path d="M52.62 39.276c0-.735.593-1.331 1.326-1.331.736 0 1.328.596 1.328 1.331 0 .731-.592 1.328-1.328 1.328-.733.001-1.326-.596-1.326-1.328z" fill="#fff"/></g></svg>