<svg xmlns="http://www.w3.org/2000/svg" viewBox="0 0 121.101 121.101" enable-background="new 0 0 121.101 121.101"><path d="M63.298 84.602c9.878 8.14 22.859 2.689 30.54-5.806.601-.664 1.281-1.26 1.999-1.828 3.252-.153 6.785.214 9.682 1.828 0 0-5.193 3.922-7.167 8.226 0 0 5.823 1.186 10.396-1.694 0 0-.574 6.88-5.447 12.828-1.525.467-3.165.883-4.948 1.236-30.029 5.917-38.67-11.149-38.67-11.149l3.615-3.641z" fill="#D45136"/><path d="M98.352 87.022c1.974-4.304 7.167-8.226 7.167-8.226-2.897-1.614-6.43-1.981-9.682-1.828 8.477-6.694 24.205-6.947 24.205-6.947s7.367 20.744-16.741 28.135c4.874-5.948 5.447-12.828 5.447-12.828-4.573 2.88-10.396 1.694-10.396 1.694z" fill="#D8D8D8"/><path d="M81.692 78.792c0 19.177 0 34.936-34.723 34.722h-.635c-34.722 2.381-34.722-15.545-34.722-34.722v-.566c0-19.176 15.545-34.721 34.722-34.721h.635c19.176 0 34.723 15.545 34.723 34.721v.566z" fill-rule="evenodd" clip-rule="evenodd" fill="#E76541"/><g fill-rule="evenodd" clip-rule="evenodd"><path d="M65.785 20.027s9.023-12.653 26.426-12.653c0 0 1.751 16.41-9.369 29.097" fill="#E76541"/><path d="M65.946 23.724s6.994-9.809 20.485-9.809c0 0 1.357 12.721-7.264 22.555" fill="#E49788"/><path d="M26.527 20.027s-9.023-12.653-26.427-12.653c0 0-1.751 16.41 9.37 29.097" fill="#E76541"/><path d="M26.366 23.724s-6.994-9.809-20.485-9.809c0 0-1.357 12.721 7.264 22.555" fill="#E49788"/><path d="M46.65 12.98s-36.619 0-45.561 46.228c0 0 34.206-6.913 45.562 10.813 9.225-15.88 45.56-10.813 45.56-10.813-8.942-46.228-45.561-46.228-45.561-46.228z" fill="#E76541"/><path d="M20.929 23.015s5.352 2.384 13.23 13.881c8.368 12.214 6.463 27.1 6.463 27.1s-10.153-7.33-39.533-4.787c0-.001 1.986-22.952 19.84-36.194zm51.629 0s-5.353 2.384-13.23 13.881c-8.368 12.214-6.464 27.1-6.464 27.1s10.153-7.33 39.534-4.787c-.001-.001-1.986-22.952-19.84-36.194z" fill="#D8D8D8"/><circle cx="65.784" cy="42.24" r="3.832" fill="#434849"/><circle cx="67.393" cy="41.501" r="1.447" fill="#fff"/><circle cx="27.701" cy="42.24" r="3.832" fill="#434849"/><circle cx="29.149" cy="41.501" r="1.447" fill="#fff"/><path d="M52.678 63.996c0 3.327-2.698 6.026-6.026 6.026-3.33 0-6.028-2.699-6.028-6.026" fill="#434849"/></g></svg>