<svg xmlns="http://www.w3.org/2000/svg" viewBox="0 0 121.566 121.566" enable-background="new 0 0 121.566 121.566"><circle cx="98.809" cy="20.075" r="9.647" fill="#945328"/><path d="M104.371 20.075c0 3.073-2.491 5.564-5.561 5.564-3.073 0-5.563-2.492-5.563-5.564 0-3.069 2.489-5.561 5.563-5.561 3.069 0 5.561 2.492 5.561 5.561z" fill="#B57651"/><circle cx="21.359" cy="20.075" r="9.647" fill="#945328"/><path d="M26.921 20.075c0 3.073-2.491 5.565-5.562 5.565-3.072 0-5.563-2.492-5.563-5.565 0-3.069 2.49-5.561 5.563-5.561 3.071 0 5.562 2.491 5.562 5.561z" fill="#B57651"/><path fill-rule="evenodd" clip-rule="evenodd" fill="#603813" d="M.809 58.012l5.038-2.013-4.869-2.394 5.178-1.62-4.671-2.762 5.288-1.215-4.441-3.115 5.367-.8-4.186-3.451 5.412-.377-3.902-3.767 5.426.044-3.599-4.062 5.405.467-3.274-4.326 5.354.879-2.935-4.563 5.271 1.285-2.579-4.773 5.16 1.679-2.212-4.954 5.017 2.063-1.836-5.105 4.853 2.43-1.453-5.227 4.658 2.784-1.062-5.321 4.44 3.119-.666-5.384 4.198 3.438-.27-5.42 3.935 3.736.127-5.424 3.65 4.013.522-5.401 3.352 4.266.91-5.348 3.036 4.497 1.291-5.27 2.709 4.702 1.661-5.166 2.372 4.881 2.018-5.037 1.988 5.04 2.388-4.863 1.575 5.184 2.763-4.659 1.17 5.29 3.107-4.438.775 5.362 3.422-4.201.394 5.404 3.706-3.952.019 5.417 3.965-3.692-.342 5.407 4.202-3.419-.7 5.372 4.419-3.135-1.052 5.315 4.615-2.839-1.399 5.235 4.793-2.527-1.744 5.13 4.951-2.202-2.087 5.001 5.09-1.856-2.429 4.842 5.208-1.492-2.768 4.657 5.303-1.11-3.109 4.437 5.373-.705-3.439 4.185 5.41-.282-3.761 3.9 5.414.154-4.068 3.577 5.382.61-4.359 3.215 5.311 1.069-4.621 2.828 5.197 1.527-4.852 2.412 5.044 1.98-5.038 2.047 4.872 2.413-5.176 1.667 4.676 2.773-5.288 1.269 4.453 3.12-5.369.864 4.201 3.451-5.418.447 3.924 3.765-5.437.032 3.624 4.054-5.423-.387 3.302 4.32-5.378-.802 2.96 4.561-5.301-1.211 2.603 4.774-5.192-1.616 2.229 4.959-5.054-2.008 1.842 5.117-4.884-2.39 1.445 5.242-4.687-2.755 1.042 5.336-4.465-3.103.634 5.4-4.216-3.432.225 5.433-3.948-3.74-.18 5.435-3.66-4.022-.58 5.406-3.356-4.278-.971 5.35-3.039-4.509-1.35 5.267-2.716-4.711-1.711 5.161-2.389-4.886-2.058 5.034-2.039-5.032-2.356 4.892-1.706-5.154-2.675 4.725-1.358-5.256-2.99 4.531-.989-5.338-3.302 4.31-.604-5.395-3.605 4.061-.209-5.426-3.893 3.784.195-5.425-4.167 3.479.606-5.395-4.419 3.152 1.017-5.333-4.65 2.801 1.429-5.237-4.854 2.431 1.833-5.109-5.029 2.043 2.228-4.951-5.174 1.642 2.61-4.76-5.287 1.231 2.977-4.539-5.367.813 3.322-4.294-5.414.39 3.649-4.02-5.429-.032 3.949-3.725-5.409-.451 4.225-3.41-5.361-.865 4.471-3.082-5.279-1.264 4.689-2.738-5.171-1.653 4.877-2.386z"/><path d="M32.358 109.212c-6.759-5.672-8.203-19.682-8.279-34.185-.084-16.28 2.065-33.181 10.322-39.61 15.612-12.155 27.072 3.038 27.072 3.038s11.461-15.193 27.073-3.038c8.702 6.776 10.362 23.454 10.259 39.61-.083 12.826-.46 25.323-5.12 32.273-4.204 6.268-36.7 22.579-61.327 1.912z" fill-rule="evenodd" clip-rule="evenodd" fill="#945328"/><g fill-rule="evenodd" clip-rule="evenodd"><path d="M77.075 101.08c-4.649 4.76-6.997 13.617-2.639 17.872 4.354 4.257 13.768 2.299 18.416-2.461 4.65-4.76 7.018-9.131.53-16.325-5.499-6.094-11.658-3.847-16.307.914z" fill="#824420"/><path d="M76.141 102.126c-4.203 4.304-6.018 12.616-1.66 16.871 4.357 4.255 13.234 2.845 17.438-1.458 4.204-4.303 6.25-8.348-.276-15.498-5.534-6.061-11.297-4.218-15.502.085z" fill="#75391B"/><path d="M46.059 101.08c4.65 4.76 6.997 13.617 2.64 17.872-4.355 4.257-13.768 2.299-18.417-2.461-4.65-4.76-7.018-9.131-.529-16.325 5.497-6.094 11.657-3.847 16.306.914z" fill="#824420"/><path d="M46.993 102.126c4.204 4.304 6.017 12.616 1.66 16.871-4.356 4.255-13.234 2.845-17.438-1.458-4.204-4.303-6.25-8.348.276-15.498 5.534-6.061 11.296-4.218 15.502.085z" fill="#75391B"/></g><g fill-rule="evenodd" clip-rule="evenodd"><circle cx="45.926" cy="55.094" r="3.521" fill="#1A1A1A"/><path d="M45.926 54.415c0-.735.592-1.333 1.329-1.333.736 0 1.33.598 1.33 1.333s-.594 1.332-1.33 1.332c-.737 0-1.329-.597-1.329-1.332z" fill="#fff"/><circle cx="74.412" cy="55.094" r="3.521" fill="#1A1A1A"/><path d="M74.413 54.415c0-.735.592-1.333 1.328-1.333.737 0 1.33.598 1.33 1.333s-.593 1.332-1.33 1.332c-.737 0-1.328-.597-1.328-1.332z" fill="#fff"/><path d="M66.406 51.573c-4.092 3.388-2.25 16.624-2.25 16.624h-6.747s1.081-13.236-3.011-16.624h12.008z" fill="#A35E37"/><circle cx="60.782" cy="71.802" r="4.942" fill="#1A1A1A"/></g></svg>