<svg xmlns="http://www.w3.org/2000/svg" viewBox="0 0 121.021 121.021" enable-background="new 0 0 121.021 121.021"><g fill-rule="evenodd" clip-rule="evenodd"><path d="M96.575 81.31c0 19.176 0 34.936-34.724 34.721h-.636c-34.721 2.383-34.721-15.545-34.721-34.721v-.566c0-19.176 15.545-34.721 34.721-34.721h.636c19.177 0 34.724 15.545 34.724 34.721v.566z" fill="#8C8B88"/><path d="M88.702 81.469c0 19.079 7.873 34.389-25.977 35.878-33.986 2-25.977-16.799-25.977-35.878v-.563c0-19.077 11.524-34.542 25.74-34.542h.471c14.218 0 25.743 15.465 25.743 34.542v.563z" fill="#E2E2E2"/><path d="M49.704 95.011c4.614 7.734 4.903 20.135-2.177 24.357-7.079 4.225-18.849-1.328-23.463-9.062-4.614-7.735-6.349-14.237 4.465-21.653 9.164-6.283 16.56-1.377 21.175 6.358z" fill="#9D9D9D"/><path d="M50.602 96.685c4.172 6.993 3.931 18.506-3.148 22.729-7.08 4.223-18.319-.439-22.491-7.434-4.173-6.992-5.588-12.963 5.265-20.311 9.198-6.227 16.2-1.979 20.374 5.016z" fill="#8C8B88"/><path d="M75.902 95.011c-4.614 7.734-4.903 20.135 2.177 24.357 7.079 4.225 18.849-1.328 23.463-9.062 4.614-7.735 6.349-14.237-4.465-21.653-9.164-6.283-16.559-1.377-21.175 6.358z" fill="#9D9D9D"/><path d="M75.005 96.685c-4.172 6.993-3.931 18.506 3.148 22.729 7.08 4.223 18.319-.439 22.491-7.434 4.173-6.992 5.588-12.963-5.265-20.311-9.198-6.227-16.2-1.979-20.374 5.016z" fill="#8C8B88"/><circle cx="96.81" cy="20.857" r="20.857" fill="#9D9D9D"/><circle cx="24.21" cy="20.857" r="20.856" fill="#9D9D9D"/><ellipse cx="25.168" cy="28.202" rx="15.644" ry="14.791" fill="#E2E2E2"/><ellipse cx="96.575" cy="28.202" rx="15.644" ry="14.791" fill="#E2E2E2"/><path d="M24.21 38.21c0-18.68 16.711-33.822 37.325-33.822 20.615 0 37.325 15.142 37.325 33.822s-9.247 33.822-37.325 33.822c-29.976 0-37.325-15.142-37.325-33.822z" fill="#9D9D9D"/><circle cx="42.522" cy="39.882" r="4.074" fill="#434849"/><path d="M42.693 39.095c0-.85.686-1.541 1.538-1.541s1.538.692 1.538 1.541c0 .852-.686 1.542-1.538 1.542s-1.538-.691-1.538-1.542z" fill="#fff"/><circle cx="80.027" cy="39.882" r="4.074" fill="#434849"/><path d="M80.198 39.095c0-.85.687-1.541 1.539-1.541.853 0 1.538.692 1.538 1.541 0 .852-.686 1.542-1.538 1.542s-1.539-.691-1.539-1.542z" fill="#fff"/><path d="M68.598 55.45c0 3.12-2.529 5.649-5.65 5.649h-2.823c-3.121 0-5.65-2.529-5.65-5.649v-13.992c0-3.121 2.529-5.65 5.65-5.65h2.823c3.121 0 5.65 2.529 5.65 5.65v13.992z" fill="#434849"/><circle cx="59.346" cy="57.946" r=".933"/><circle cx="63.659" cy="57.946" r=".934"/></g></svg>