<svg xmlns="http://www.w3.org/2000/svg" viewBox="0 0 114.358 114.358" enable-background="new 0 0 114.358 114.358"><g fill-rule="evenodd" clip-rule="evenodd"><path d="M91.795 76.921c0 19.176 0 34.936-34.725 34.721h-.635c-34.721 2.383-34.721-15.545-34.721-34.721v-.566c0-19.176 15.545-34.721 34.721-34.721h.635c19.178 0 34.725 15.545 34.725 34.721v.566z" fill="#AE8661"/><path d="M83.922 77.081c0 19.079 5.645 34.788-25.744 34.544h-.471c-30.141 2.563-25.74-15.465-25.74-34.544v-.563c0-19.077 11.525-34.542 25.74-34.542h.471c14.219 0 25.744 15.465 25.744 34.542v.563z" fill="#E2D1C5"/><path d="M47.233 91.595c4.039 6.769 4.291 17.621-1.904 21.316-6.195 3.698-16.496-1.162-20.535-7.93-4.037-6.77-5.556-12.46 3.908-18.95 8.019-5.499 14.492-1.205 18.531 5.564z" fill="#A37C5B"/><path d="M48.018 93.06c3.651 6.12 3.44 16.196-2.755 19.891-6.196 3.697-16.032-.384-19.684-6.505-3.652-6.12-4.891-11.345 4.607-17.775 8.052-5.45 14.18-1.732 17.832 4.389z" fill="#8E694D"/><path d="M68.119 91.595c-4.039 6.769-4.291 17.621 1.904 21.316 6.195 3.698 16.496-1.162 20.535-7.93 4.037-6.77 5.556-12.46-3.908-18.95-8.019-5.499-14.491-1.205-18.531 5.564z" fill="#A37C5B"/><path d="M67.334 93.06c-3.651 6.12-3.44 16.196 2.755 19.891 6.196 3.697 16.032-.384 19.684-6.505 3.652-6.12 4.891-11.345-4.607-17.775-8.051-5.45-14.179-1.732-17.832 4.389z" fill="#8E694D"/></g><g fill-rule="evenodd" clip-rule="evenodd"><circle cx="91.489" cy="13.238" r="9.107" fill="#B28B6B"/><ellipse cx="91.128" cy="13.238" rx="6.831" ry="6.458" fill="#8E694D"/><circle cx="22.869" cy="13.238" r="9.106" fill="#B28B6B"/><ellipse cx="22.508" cy="13.238" rx="6.831" ry="6.458" fill="#8E694D"/></g><path d="M19.43 33.822c0-18.68 16.711-33.822 37.324-33.822 20.615 0 37.326 15.142 37.326 33.822s-9.248 33.822-37.326 33.822c-29.976 0-37.324-15.143-37.324-33.822z" fill-rule="evenodd" clip-rule="evenodd" fill="#B28B6B"/><g fill-rule="evenodd" clip-rule="evenodd"><path d="M46.797 16.637s-4.76-7.357-14.698 2.303c-9.23 8.972-10.384 20.389-7.448 24.889 2.02 3.097 16.896 8.39 26.346-.638 9.449-9.027-4.2-26.554-4.2-26.554z" fill="#8E694D"/><circle cx="39.194" cy="33.28" r="11.628" fill="#7F5C44"/><path d="M48.043 33.281c0-4.887-3.965-8.85-8.85-8.85-4.887 0-8.85 3.962-8.85 8.85s3.963 8.848 8.85 8.848c4.885 0 8.85-3.961 8.85-8.848z" fill="#434849"/><path d="M39.816 31.572c0-1.707 1.38-3.097 3.093-3.097 1.712 0 3.09 1.39 3.09 3.097 0 1.71-1.378 3.098-3.09 3.098-1.713-.001-3.093-1.388-3.093-3.098z" fill="#D0D1D2"/><circle cx="37.357" cy="34.947" r="1.011" fill="#D0D1D2"/></g><path d="M66.916 16.637s4.697-7.291 14.698 2.303c9.874 9.472 9.513 20.722 6.536 24.722-2.207 2.966-15.984 8.556-25.434-.471-9.448-9.027 4.2-26.554 4.2-26.554z" fill-rule="evenodd" clip-rule="evenodd" fill="#8E694D"/><circle cx="74.097" cy="33.28" r="11.628" fill-rule="evenodd" clip-rule="evenodd" fill="#7F5C44"/><g fill-rule="evenodd" clip-rule="evenodd"><circle cx="74.096" cy="33.281" r="8.85" fill="#434849"/><path d="M74.718 31.572c0-1.707 1.38-3.097 3.093-3.097 1.712 0 3.09 1.39 3.09 3.097 0 1.71-1.378 3.098-3.09 3.098-1.713-.001-3.093-1.388-3.093-3.098z" fill="#D0D1D2"/><circle cx="72.259" cy="34.947" r="1.011" fill="#D0D1D2"/></g><path d="M59.385 43.606c0 1.826-1.133 3.306-2.528 3.306-1.396 0-2.528-1.48-2.528-3.306v-27.062c0-1.826 1.132-3.306 2.528-3.306 1.396 0 2.528 1.48 2.528 3.306v27.062zm5.914 8.388c0 4.097-3.321 7.418-7.418 7.418h-2.254c-4.096 0-7.418-3.321-7.418-7.418 0-4.097 3.322-7.418 7.418-7.418h2.254c4.097 0 7.418 3.321 7.418 7.418z" fill-rule="evenodd" clip-rule="evenodd" fill="#E2D1C5"/><path d="M52.119 50.934c-.714-.837-.397-1.521.702-1.521h7.657c1.1 0 1.416.685.702 1.522l-3.233 3.79c-.714.837-1.882.837-2.596 0l-3.232-3.791z" fill-rule="evenodd" clip-rule="evenodd" fill="#E49788"/></svg>