<svg xmlns="http://www.w3.org/2000/svg" xmlns:xlink="http://www.w3.org/1999/xlink" viewBox="0 0 116.667 116.667" enable-background="new 0 0 116.667 116.667"><path d="M111.345 110.98c0 2.545-2.063 4.607-4.608 4.607h-50.417c-2.545 0-4.607-2.063-4.607-4.607s2.063-4.607 4.607-4.607h50.417c2.545 0 4.608 2.063 4.608 4.607z" fill="#C7631B"/><g fill="#333"><path d="M106.737 106.372c2.545 0 4.608 2.063 4.608 4.608 0 2.545-2.063 4.607-4.608 4.607"/><path d="M96.888 106.373h3.333v9.214h-3.333zm-8 0h3.333v9.214h-3.333zm-8 0h3.333v9.214h-3.333z"/></g><path d="M81.304 79.202c0 20.565 0 37.465-37.236 37.236h-.682c-37.236 2.555-37.236-16.67-37.236-37.236v-.607c0-20.564 16.672-37.235 37.236-37.235h.682c20.563 0 37.236 16.67 37.236 37.235v.607z" fill-rule="evenodd" clip-rule="evenodd" fill="#C56A27"/><circle cx="68.313" cy="11.816" r="11.817" fill="#E38032"/><circle cx="68.313" cy="11.816" r="6.813" fill="#754C24"/><circle cx="17.139" cy="11.816" r="11.817" fill="#E38032"/><circle cx="17.139" cy="11.816" r="6.813" fill="#754C24"/><defs><path id="a" d="M6.402 36.167c0-18.68 16.711-33.822 37.325-33.822 20.615 0 37.325 15.142 37.325 33.822 0 18.679-9.247 33.822-37.325 33.822-29.976 0-37.325-15.142-37.325-33.822z"/></defs><use xlink:href="#a" overflow="visible" fill-rule="evenodd" clip-rule="evenodd" fill="#E38032"/><clipPath><use xlink:href="#a" overflow="visible"/></clipPath><g fill-rule="evenodd" clip-rule="evenodd"><circle cx="29.389" cy="28.234" r="4.074" fill="#333"/><path d="M29.56 27.448c0-.85.687-1.541 1.539-1.541.853 0 1.538.691 1.538 1.541 0 .851-.685 1.542-1.538 1.542-.852 0-1.539-.691-1.539-1.542z" fill="#fff"/><circle cx="59.638" cy="28.234" r="4.074" fill="#333"/><path d="M59.809 27.448c0-.85.687-1.541 1.539-1.541.852 0 1.538.691 1.538 1.541 0 .851-.686 1.542-1.538 1.542s-1.539-.691-1.539-1.542z" fill="#fff"/></g><path d="M7.436 28.234l11.699 6.243-12.618 5.578s-.612-8.335.919-11.821zm-.622 15.055l18.501-.954-13.683 15.16s-3.766-4.858-4.818-14.206zm73.198-15.055l-11.699 6.243 12.618 5.578s.613-8.335-.919-11.821zm.622 15.055l-18.501-.954 13.269 14.701s4.181-4.399 5.232-13.747z" fill-rule="evenodd" clip-rule="evenodd" fill="#333"/><path fill-rule="evenodd" clip-rule="evenodd" fill="#F3AB32" d="M38.699 24.161h12.625l6.625 26.393h-25.312z"/><path d="M57.949 50.554c0 5.699-5.666 10.319-12.656 10.319-6.989 0-12.655-4.62-12.655-10.319" fill-rule="evenodd" clip-rule="evenodd" fill="#333"/><path d="M37.407 68.527c-1.22 0-2.571-.165-4.052-.494-.269-.06-.439-.327-.38-.597.06-.269.326-.439.597-.38 3.983.888 6.909.523 8.699-1.082 2.288-2.05 1.935-5.52 1.931-5.555-.03-.274.167-.521.441-.552.283-.033.522.166.553.44.019.162.42 4.005-2.25 6.405-1.343 1.209-3.198 1.815-5.539 1.815zm14.637-.347c-2.342 0-4.196-.605-5.539-1.813-2.67-2.4-2.269-6.243-2.25-6.405.031-.274.267-.475.553-.44.274.031.472.278.441.552-.004.035-.358 3.505 1.931 5.555 1.788 1.605 4.718 1.969 8.699 1.082.272-.058.537.111.597.38.06.27-.11.537-.38.597-1.48.327-2.833.492-4.052.492z" fill="#333"/></svg>