<svg xmlns="http://www.w3.org/2000/svg" viewBox="0 0 136.454 136.454" enable-background="new 0 0 136.454 136.454"><path d="M80.278 64.891s4.976 23.738 23.541 15.133c0 0-7.758-7.357-4.508-11.678 3.248-4.324 15.898-17.247 15.898-17.247s10.338 10.586 1.207 20.647c0 0 9.104-7.737 20.037 1.111 0 0-15.064 22.968-24.867 13.943 0 0-17.727 27.917-60.322 31.251" fill="#469B9D"/><path d="M40.238 33.192s-2.348-3.523-8.218-3.132c-5.87.392-2.348-8.608 4.109-7.435 6.458 1.174 3.327 6.261 4.109 10.567zm.649-10.672s.1-2.652-3.025-4.609c-3.126-1.957 1.97-5.235 4.817-2.268 2.849 2.968-.61 4.402-1.792 6.877zm1.319 10.672s2.348-3.523 8.217-3.132c5.871.392 2.35-8.608-4.108-7.435-6.457 1.174-3.327 6.261-4.109 10.567z" fill="#2595CE"/><circle cx="41.221" cy="78.069" r="41.221" fill="#469B9D"/><path d="M.055 80.204s14.175 5.596 24.787-.976c6.019-3.727 5.459 22.983 22.921 27.663 17.461 4.679 46.444-2.306 63.824-20.091 0 0-36.719 53.404-90.785 28.655 0 .001-19.907-8.505-20.747-35.251z" fill="#D8D8D8"/><path d="M35.253 77.822c-.009 3.154.427 6.3 1.31 9.293.227.746.486 1.48.78 2.2.299.717.64 1.413 1.011 2.091l.6.989.669.939.727.891c.251.288.531.55.795.827.558.52 1.14 1.017 1.781 1.43.306.229.639.415.976.593.333.186.664.375 1.022.509.691.325 1.424.545 2.157.762.748.154 1.489.361 2.259.412l1.146.12 1.155.035c.771.056 1.545-.053 2.318-.07.771-.063 1.541-.185 2.313-.273l2.294-.445-.257.169c.193-.274.372-.67.524-1.029.14-.377.269-.761.358-1.158.117-.39.147-.803.227-1.203.032-.409.087-.817.1-1.229-.005-.412.016-.826-.01-1.24l-.107-1.241-.213-1.233c-.058-.414-.198-.813-.292-1.22-.107-.405-.201-.814-.353-1.208l-.412-1.191c-.135-.399-.317-.78-.475-1.172-.165-.388-.319-.782-.495-1.166-.384-.752-.749-1.518-1.151-2.264l-1.273-2.207 1.443 2.106c.449.723.864 1.469 1.299 2.205.201.376.382.765.573 1.146.182.388.397.761.55 1.162l.468 1.199c.169.396.282.812.407 1.224.113.415.271.819.348 1.245l.268 1.27.161 1.293c.044.433.039.87.061 1.307.003.437-.037.875-.059 1.313-.078.434-.106.875-.228 1.304-.092.433-.228.857-.379 1.277-.177.423-.333.814-.623 1.242l-.091.135-.166.034-2.346.485c-.794.103-1.585.236-2.383.313-.803.029-1.601.148-2.409.103l-1.21-.023c-.402-.026-.804-.088-1.206-.132-.807-.064-1.596-.291-2.385-.466-.778-.239-1.554-.485-2.29-.841-.38-.148-.732-.354-1.087-.558-.358-.195-.711-.398-1.036-.647-.68-.451-1.296-.989-1.883-1.551-.277-.297-.57-.58-.833-.889l-.756-.954-.666-1.014-.588-1.058c-.36-.721-.687-1.454-.967-2.205-.274-.753-.513-1.517-.715-2.288-.196-.774-.364-1.553-.493-2.338-.115-.787-.214-1.575-.271-2.366-.12-1.581-.148-3.17.008-4.744z" fill="#218588"/><g fill-rule="evenodd" clip-rule="evenodd"><circle cx="17.305" cy="64.244" r="3.832" fill="#434849"/><circle cx="18.752" cy="63.506" r="1.447" fill="#fff"/></g></svg>