<svg xmlns="http://www.w3.org/2000/svg" xmlns:xlink="http://www.w3.org/1999/xlink" viewBox="0 0 120.301 120.301" enable-background="new 0 0 120.301 120.301"><path d="M103.771 74.586c-1.093 1.397-4.252 5.477-2.815 11.726.634 2.754 1.352 4.397 1.907 5.635.578 1.236 2.143 3.635 3.492 4.799 1.099-1.399 1.462-1.586 2.606-3.438.709-1.156 1.35-2.964 1.223-4.244-.126-1.279-.29-2.654-1.25-4.519-.58-1.239-5.196-6.616-5.163-9.959z" fill="#3C3C3B"/><path d="M107.772 95.889c.178-.715.303-1.472.37-2.272.131-1.581-1.043-2.969-2.624-3.101-1.58-.129-2.966 1.043-3.101 2.625-.783 9.36-16.933 9.07-17.098 9.065-1.585-.036-2.903 1.215-2.939 2.803-.039 1.586 1.216 2.902 2.802 2.941.839.019 19.523.315 22.59-12.061z" fill="#E2E2E2"/><path d="M87.865 81.547c0 21.273 0 38.756-38.519 38.518h-.706c-38.519 2.643-38.519-17.244-38.519-38.518v-.628c0-21.272 17.246-38.518 38.519-38.518h.705c21.272 0 38.519 17.245 38.519 38.518v.628z" fill-rule="evenodd" clip-rule="evenodd" fill="#D8D8D8"/><path d="M87.286 90.016c-1.002.539-2.425 1.141-3 1.399-1.987.89-4.03 1.499-6.082 1.877-4.108.762-8.205.68-12.156.14 3.973-.34 7.882-1.172 11.39-2.685 1.753-.746 3.395-1.688 4.847-2.778.624-.475 4.432-3.489 5.58-4.593-.009 4.533-.004 4.503-.087 6.358l-.492.282zm-1.143 12.173c-1.034.476-2.49.989-3.08 1.213-2.037.767-4.114 1.251-6.187 1.502-4.146.511-8.23.18-12.141-.6 3.986-.098 7.94-.69 11.533-1.986 1.795-.639 3.395-1.64 5.006-2.479 3.596-1.875 4.948-3.738 6.162-4.769-.009 2.01-.548 4.066-.68 4.563-.047.18-.562 2.377-.613 2.556zm-75.464-12.173c1.002.539 2.425 1.141 3 1.399 1.987.89 4.03 1.499 6.083 1.877 4.108.762 8.205.68 12.156.14-3.973-.34-7.882-1.172-11.39-2.685-1.753-.746-3.395-1.688-4.847-2.778-.624-.475-4.432-3.489-5.58-4.593.009 4.533.004 4.503.087 6.358l.491.282zm1.062 12.331c1.034.476 2.571.832 3.161 1.056 2.037.767 4.114 1.251 6.187 1.502 4.146.511 8.23.18 12.141-.6-3.986-.098-7.94-.69-11.533-1.986-1.795-.639-3.395-1.64-5.006-2.479-3.596-1.875-4.948-3.738-6.162-4.769.171 2.204.354 3.4.767 5.506.036.183.394 1.59.445 1.77z" fill="#3C3C3B"/><g fill-rule="evenodd" clip-rule="evenodd"><path d="M44.876 13.933c-3.946-6.143 0-12.941 0-12.941s.844 1.26 1.272 1.16c0 0 .876-1.444 1.733-1.728 0 0-.144.922 0 1.346 0 0 1.502-1.416 3.004-1.77v1.77s.965-.105 1.573-1.063v1.346s.966-.495 1.287-1.204c0 0 4.075 7.225 0 13.084m-15.165 5.608s-3.579-11.938-16.79-16.434c0 0-5.57 12.004-.406 24.507" fill="#4D4D4D"/><path d="M37.502 22.305s-2.774-9.253-13.015-12.738c0 0-4.318 9.306-.315 18.998" fill="#F4A3A6"/><path d="M58.708 17.529s4.953-11.436 18.6-14.355c0 0 4.125 12.574-2.468 24.388" fill="#4D4D4D"/><path d="M59.454 20.399s3.839-8.863 14.418-11.126c0 0 3.199 9.747-1.912 18.905" fill="#F4A3A6"/></g><defs><path id="a" d="M15.852 45.822c0-19.893 16.943-36.312 33.141-36.312 15.548 0 31.279 15.509 33.387 35.283 2.1 19.705-5.424 41.933-33.387 41.933-32.269.001-33.141-21.011-33.141-40.904z"/></defs><use xlink:href="#a" overflow="visible" fill-rule="evenodd" clip-rule="evenodd" fill="#D8D8D8"/><clipPath><use xlink:href="#a" overflow="visible"/></clipPath><g fill-rule="evenodd" clip-rule="evenodd"><circle cx="33.311" cy="45.259" r="3.965" fill="#434849"/><path d="M33.311 44.495c0-.828.668-1.5 1.496-1.5.831 0 1.497.672 1.497 1.5 0 .827-.667 1.499-1.497 1.499-.828 0-1.496-.672-1.496-1.499z" fill="#fff"/><circle cx="63.419" cy="44.525" r="3.965" fill="#434849"/><path d="M63.42 43.76c0-.826.667-1.499 1.496-1.499.83 0 1.497.673 1.497 1.499 0 .828-.667 1.5-1.497 1.5-.829 0-1.496-.672-1.496-1.5z" fill="#fff"/><path d="M76.956 70.989c0 8.691-15.241 16.441-24.803 16.441h-8.361c-9.562 0-23.216-7.75-23.216-16.441 0-8.692 7.752-15.737 17.314-15.737h21.752c9.562 0 17.314 7.045 17.314 15.737z" fill="#4D4D4D"/><g fill="#333"><circle cx="42.581" cy="62" r="2.981"/><circle cx="54.219" cy="62" r="2.981"/></g></g><path d="M17.796 34.074l8.913 4.491-10-.265c0 .001.113-1.63 1.087-4.226zm-1.887 9.966l9.407.559-9.463 3.891c-.001-.001-.102-2.438.056-4.45zm.04 9.165l11.439-1.145-11.152 6.068c-.001.001-.348-2.282-.287-4.923zm63.852-19.131l-9.253 4.491 10.595-.363s-.368-1.532-1.342-4.128zm2.455 9.686l-10.315.839 10.692 3.398s.077-1.772-.377-4.237zm.413 9.318l-11.571-1.018 11.153 5.854c0 .001.479-2.195.418-4.836z" fill-rule="evenodd" clip-rule="evenodd" fill="#333"/><path d="M68.429 17.547c-1.271-1.07-2.798-2.624-4.321-3.271l-3.498 12.888 7.819-9.617zm-39.544.223l7.81 9.969-3.383-13.304c-1.363.528-1.615 1.175-2.737 1.939-.19.131-1.507 1.266-1.69 1.396z" fill="#3C3C3B"/></svg>